<svg width="36" height="32" viewBox="0 0 36 32" fill="none" xmlns="http://www.w3.org/2000/svg">
<g clip-path="url(#clip0_136_13)">
<path d="M0.0405273 0.890248C0.0557579 0.503821 0.492368 0 0.964515 0C12.3214 0.0146744 23.6784 0.00978294 35.0302 0C35.4719 0 35.9999 0.410883 35.9948 0.934271C35.9847 4.14308 35.9948 7.35188 35.9898 10.5607C35.9898 11.1623 35.5684 11.4998 35.0099 11.5585C34.355 11.627 31.2835 11.8618 31.0957 11.8129C30.6692 11.7053 30.4052 11.3433 30.4052 10.9031C30.4052 9.26445 30.4052 7.63069 30.4052 5.99205C30.4052 5.63008 30.2021 5.43442 29.8265 5.43442C27.6282 5.43442 21.8812 5.40018 21.211 5.39529C20.8759 5.39529 20.8506 5.41975 20.8506 5.7328V20.505C20.8455 21.1067 20.6272 21.2583 20.2007 21.3366C20.0129 21.3708 16.4235 21.679 15.8346 21.6986C15.4082 21.7132 15.1797 21.4833 15.1797 21.0725C15.1797 21.0725 15.1797 9.78783 15.1797 5.64965C15.1797 5.40997 15.1797 5.42953 14.931 5.42953C14.144 5.43932 6.54906 5.4491 6.09722 5.43932C5.82307 5.42953 5.62507 5.67411 5.62507 5.9627C5.62507 5.9627 5.61492 9.81718 5.62507 10.4237C5.63522 11.0303 5.65045 11.0352 5.41184 11.1379C5.17323 11.2406 1.11174 11.8863 0.791902 11.8129C0.329908 11.7102 0.0405273 11.3971 0.0405273 10.9422C0.0405273 8.21278 0.0405273 0.958728 0.0405273 0.900031V0.890248Z" fill="#A3A3A3"/>
<path d="M0 18.0055C0 17.1837 0.335073 17.0174 1.04583 16.9049C1.73121 16.8413 4.73163 16.6017 4.92963 16.6506C5.36624 16.7582 5.62516 17.1202 5.62516 17.6142C5.62516 20.417 5.62516 23.2198 5.62516 26.0226C5.62516 26.4188 5.82823 26.6145 6.23438 26.6145C14.0477 26.6145 21.861 26.6145 29.6742 26.6145C30.1819 26.6145 30.4002 26.4971 30.4002 25.9101C30.4002 24.7117 30.4002 23.5133 30.4002 22.3149C30.4002 22.0801 30.3799 22.0557 30.1312 22.0557C28.7604 22.0557 27.3897 22.0557 26.024 22.0557C25.1203 22.0557 24.9375 21.9089 24.9375 21.1605C24.9375 20.2262 24.9325 19.2871 24.9375 18.3528C24.9375 17.9615 25.3335 17.5115 25.7397 17.4626C26.1864 17.4088 34.9491 16.5919 35.3552 16.7142C35.7208 16.8218 35.9949 17.1935 35.9949 17.5604C35.9949 22.0654 35.9949 26.5705 35.9949 31.0755C35.9949 31.5304 35.6802 31.9022 35.2232 32C35.1928 32.0049 1.66521 32 0.832605 32C0.502609 31.9951 0 31.7848 0 30.9728V18.0055Z" fill="#A3A3A3"/>
</g>
<defs>
<clipPath id="clip0_136_13">
<rect width="36" height="32" fill="white"/>
</clipPath>
</defs>
</svg>
