<svg width="46" height="42" viewBox="0 0 46 42" fill="none" xmlns="http://www.w3.org/2000/svg">
<g clip-path="url(#clip0_1_59)">
<path d="M0.052002 1.16845C0.0714632 0.661266 0.629353 0 1.23265 0C15.7443 0.0192602 30.2559 0.0128401 44.7611 0C45.3254 0 46.0001 0.539285 45.9936 1.22623C45.9806 5.43779 45.9936 9.64934 45.9871 13.8609C45.9871 14.6506 45.4487 15.0935 44.7351 15.1706C43.8983 15.2605 39.9736 15.5686 39.7336 15.5044C39.1887 15.3632 38.8513 14.8881 38.8513 14.3103C38.8513 12.1596 38.8513 10.0153 38.8513 7.86457C38.8513 7.38948 38.5918 7.13268 38.1118 7.13268C35.3029 7.13268 27.9595 7.08774 27.1032 7.08132C26.675 7.08132 26.6426 7.11342 26.6426 7.5243V26.9129C26.6361 27.7025 26.3572 27.9016 25.8123 28.0043C25.5722 28.0492 20.9859 28.4537 20.2334 28.4794C19.6884 28.4986 19.3965 28.1969 19.3965 27.6576C19.3965 27.6576 19.3965 12.8465 19.3965 7.41516C19.3965 7.10058 19.3965 7.12626 19.0787 7.12626C18.0732 7.1391 8.36846 7.15194 7.79111 7.1391C7.4408 7.12626 7.18781 7.44726 7.18781 7.82605C7.18781 7.82605 7.17483 12.885 7.18781 13.6811C7.20078 14.4772 7.22024 14.4836 6.91535 14.6185C6.61046 14.7533 1.42078 15.6007 1.01209 15.5044C0.421766 15.3696 0.052002 14.9587 0.052002 14.3617C0.052002 10.7793 0.052002 1.25833 0.052002 1.18129V1.16845Z" fill="#00AAF3"/>
<path d="M0 23.6322C0 22.5537 0.428148 22.3354 1.33634 22.1877C2.2121 22.1043 6.04597 21.7897 6.29897 21.8539C6.85686 21.9951 7.1877 22.4702 7.1877 23.1186C7.1877 26.7973 7.1877 30.476 7.1877 34.1547C7.1877 34.6747 7.44719 34.9315 7.96615 34.9315C17.9498 34.9315 27.9334 34.9315 37.9171 34.9315C38.5658 34.9315 38.8447 34.7774 38.8447 34.007C38.8447 32.4341 38.8447 30.8612 38.8447 29.2883C38.8447 28.9801 38.8188 28.948 38.5009 28.948C36.7494 28.948 34.9979 28.948 33.2529 28.948C32.0982 28.948 31.8646 28.7554 31.8646 27.7732C31.8646 26.5469 31.8581 25.3143 31.8646 24.088C31.8646 23.5744 32.3706 22.9838 32.8896 22.9196C33.4604 22.849 44.6572 21.7768 45.1761 21.9373C45.6432 22.0786 45.9935 22.5665 45.9935 23.048C45.9935 28.9609 45.9935 34.8737 45.9935 40.7866C45.9935 41.3837 45.5913 41.8716 45.0075 42C44.9686 42.0064 2.12777 42 1.06388 42C0.642223 41.9936 0 41.7175 0 40.6518V23.6322Z" fill="white"/>
</g>
<defs>
<clipPath id="clip0_1_59">
<rect width="46" height="42" fill="white"/>
</clipPath>
</defs>
</svg>
