<svg width="335" height="310" viewBox="0 0 335 310" fill="none" xmlns="http://www.w3.org/2000/svg">
<path d="M0.37793 8.59742C0.519678 4.86557 4.58314 0 8.97736 0C114.675 0.141716 220.372 0.0944772 326.022 0C330.133 0 335.047 3.96804 335 9.02257C334.905 40.0111 335 70.9996 334.952 101.988C334.952 107.798 331.031 111.058 325.833 111.625C319.738 112.286 291.152 114.554 289.404 114.081C285.435 113.042 282.978 109.546 282.978 105.295C282.978 89.4699 282.978 73.6922 282.978 57.8673C282.978 54.3716 281.088 52.4821 277.591 52.4821C257.132 52.4821 203.646 52.1514 197.409 52.1042C194.29 52.1042 194.054 52.3403 194.054 55.3636V198.024C194.007 203.834 191.975 205.299 188.006 206.055C186.258 206.385 152.852 209.361 147.371 209.55C143.402 209.692 141.276 207.472 141.276 203.504C141.276 203.504 141.276 94.5244 141.276 54.5606C141.276 52.2459 141.276 52.4348 138.961 52.4348C131.637 52.5293 60.9519 52.6238 56.7467 52.5293C54.1952 52.4348 52.3525 54.7967 52.3525 57.5838C52.3525 57.5838 52.258 94.8078 52.3525 100.665C52.447 106.523 52.5887 106.57 50.368 107.562C48.1473 108.554 10.3476 114.79 7.37087 114.081C3.07116 113.089 0.37793 110.066 0.37793 105.673C0.37793 79.3136 0.37793 9.25876 0.37793 8.6919V8.59742Z" fill="#7C7C7C" fill-opacity="0.11"/>
<path d="M0 173.885C0 165.949 3.11847 164.343 9.73342 163.257C16.1121 162.642 44.0366 160.328 45.8794 160.8C49.9428 161.839 52.3526 165.335 52.3526 170.106C52.3526 197.174 52.3526 224.242 52.3526 251.309C52.3526 255.136 54.2425 257.025 58.0225 257.025C130.74 257.025 203.457 257.025 276.174 257.025C280.899 257.025 282.931 255.891 282.931 250.223C282.931 238.649 282.931 227.076 282.931 215.502C282.931 213.235 282.742 212.999 280.426 212.999C267.669 212.999 254.912 212.999 242.201 212.999C233.791 212.999 232.09 211.582 232.09 204.354C232.09 195.332 232.043 186.262 232.09 177.239C232.09 173.46 235.776 169.114 239.556 168.642C243.713 168.122 325.266 160.233 329.046 161.414C332.448 162.454 335 166.044 335 169.587C335 213.093 335 256.6 335 300.107C335 304.5 332.07 308.09 327.818 309.035C327.534 309.082 15.4979 309.035 7.74894 309.035C4.67771 308.988 0 306.956 0 299.115V173.885Z" fill="#7C7C7C" fill-opacity="0.11"/>
</svg>
