<svg width="337" height="312" viewBox="0 0 337 312" fill="none" xmlns="http://www.w3.org/2000/svg">
<path d="M1.37793 9.59742C1.51968 5.86557 5.58314 1 9.97736 1C115.675 1.14172 221.372 1.09448 327.022 1C331.133 1 336.047 4.96804 336 10.0226C335.905 41.0111 336 71.9996 335.952 102.988C335.952 108.798 332.031 112.058 326.833 112.625C320.738 113.286 292.152 115.554 290.404 115.081C286.435 114.042 283.978 110.546 283.978 106.295C283.978 90.4699 283.978 74.6922 283.978 58.8673C283.978 55.3716 282.088 53.4821 278.591 53.4821C258.132 53.4821 204.646 53.1514 198.409 53.1042C195.29 53.1042 195.054 53.3403 195.054 56.3636V199.024C195.007 204.834 192.975 206.299 189.006 207.055C187.258 207.385 153.852 210.361 148.371 210.55C144.402 210.692 142.276 208.472 142.276 204.504C142.276 204.504 142.276 95.5244 142.276 55.5606C142.276 53.2459 142.276 53.4348 139.961 53.4348C132.637 53.5293 61.9519 53.6238 57.7467 53.5293C55.1952 53.4348 53.3525 55.7967 53.3525 58.5838C53.3525 58.5838 53.258 95.8078 53.3525 101.665C53.447 107.523 53.5887 107.57 51.368 108.562C49.1473 109.554 11.3476 115.79 8.37087 115.081C4.07116 114.089 1.37793 111.066 1.37793 106.673C1.37793 80.3136 1.37793 10.2588 1.37793 9.6919V9.59742Z" fill="#7C7C7C" fill-opacity="0.11" stroke="url(#paint0_linear_263_62)" stroke-width="2"/>
<path d="M1 174.885C1 166.949 4.11847 165.343 10.7334 164.257C17.1121 163.642 45.0366 161.328 46.8794 161.8C50.9428 162.839 53.3526 166.335 53.3526 171.106C53.3526 198.174 53.3526 225.242 53.3526 252.309C53.3526 256.136 55.2425 258.025 59.0225 258.025C131.74 258.025 204.457 258.025 277.174 258.025C281.899 258.025 283.931 256.891 283.931 251.223C283.931 239.649 283.931 228.076 283.931 216.502C283.931 214.235 283.742 213.999 281.426 213.999C268.669 213.999 255.912 213.999 243.201 213.999C234.791 213.999 233.09 212.582 233.09 205.354C233.09 196.332 233.043 187.262 233.09 178.239C233.09 174.46 236.776 170.114 240.556 169.642C244.713 169.122 326.266 161.233 330.046 162.414C333.448 163.454 336 167.044 336 170.587C336 214.093 336 257.6 336 301.107C336 305.5 333.07 309.09 328.818 310.035C328.534 310.082 16.4979 310.035 8.74894 310.035C5.67771 309.988 1 307.956 1 300.115V174.885Z" fill="#7C7C7C" fill-opacity="0.11" stroke="url(#paint1_linear_263_62)" stroke-width="2"/>
<defs>
<linearGradient id="paint0_linear_263_62" x1="168.689" y1="1" x2="168.689" y2="210.557" gradientUnits="userSpaceOnUse">
<stop stop-color="#FC953B"/>
<stop offset="0.296875" stop-color="#FC3B7F"/>
<stop offset="0.6875" stop-color="#00A7EF" stop-opacity="0.9375"/>
</linearGradient>
<linearGradient id="paint1_linear_263_62" x1="168.5" y1="161.737" x2="168.5" y2="310.056" gradientUnits="userSpaceOnUse">
<stop offset="0.333333" stop-color="#12AEF1"/>
<stop offset="0.671875" stop-color="#B4D6E4"/>
</linearGradient>
</defs>
</svg>
