<svg width="28" height="25" viewBox="0 0 28 25" fill="none" xmlns="http://www.w3.org/2000/svg">
<path d="M0 0.697454C0.011861 0.394713 0.351878 0 0.71957 0C9.56396 0.0114965 18.4083 0.00766433 27.2488 0C27.5927 0 28.0039 0.321902 28 0.731943C27.9921 3.24584 28 5.75974 27.996 8.27364C27.996 8.745 27.6679 9.00942 27.233 9.0554C26.7229 9.10905 24.331 9.293 24.1847 9.25468C23.8526 9.17037 23.647 8.88679 23.647 8.54189C23.647 7.25812 23.647 5.97818 23.647 4.6944C23.647 4.41082 23.4888 4.25753 23.1962 4.25753C21.4843 4.25753 17.0087 4.23071 16.4869 4.22688C16.2259 4.22688 16.2061 4.24604 16.2061 4.4913V16.0644C16.2022 16.5358 16.0322 16.6546 15.7001 16.7159C15.5538 16.7427 12.7585 16.9842 12.2999 16.9995C11.9678 17.011 11.7899 16.8309 11.7899 16.509C11.7899 16.509 11.7899 7.66816 11.7899 4.42615C11.7899 4.23837 11.7899 4.2537 11.5961 4.2537C10.9833 4.26137 5.06862 4.26903 4.71674 4.26137C4.50324 4.2537 4.34905 4.44531 4.34905 4.67141C4.34905 4.67141 4.34114 7.69115 4.34905 8.16634C4.35696 8.64153 4.36882 8.64536 4.183 8.72584C3.99717 8.80631 0.834227 9.31216 0.585145 9.25468C0.22536 9.1742 0 8.92894 0 8.57255C0 6.4342 0 0.751104 0 0.705118V0.697454Z" fill="#A3A3A3"/>
<path d="M0 14.0638C0 13.4217 0.260649 13.2918 0.81354 13.2038C1.34669 13.1542 3.68068 12.9669 3.8347 13.0051C4.17433 13.0892 4.37574 13.372 4.37574 13.758C4.37574 15.948 4.37574 18.1379 4.37574 20.3279C4.37574 20.6375 4.53371 20.7904 4.84965 20.7904C10.9275 20.7904 17.0054 20.7904 23.0832 20.7904C23.4781 20.7904 23.648 20.6986 23.648 20.24C23.648 19.3036 23.648 18.3673 23.648 17.4309C23.648 17.2474 23.6322 17.2283 23.4386 17.2283C22.3724 17.2283 21.3061 17.2283 20.2437 17.2283C19.5408 17.2283 19.3986 17.1137 19.3986 16.5289C19.3986 15.7989 19.3946 15.0651 19.3986 14.3351C19.3986 14.0294 19.7066 13.6778 20.0226 13.6395C20.3701 13.5975 27.1865 12.9592 27.5024 13.0548C27.7867 13.1389 28 13.4293 28 13.716C28 17.236 28 20.756 28 24.276C28 24.6314 27.7551 24.9219 27.3997 24.9983C27.376 25.0021 1.29535 24.9983 0.647673 24.9983C0.390973 24.9945 0 24.8301 0 24.1957V14.0638Z" fill="#A3A3A3"/>
</svg>
